<mxfile host="www.draw.io" modified="2020-05-06T05:57:24.695Z" agent="5.0 (Macintosh; Intel Mac OS X 10_14_4) AppleWebKit/537.36 (KHTML, like Gecko) Chrome/81.0.4044.122 Safari/537.36" etag="2LuDcQ7jgJnHXyTY752w" version="13.0.1" type="github">
  <diagram id="0OOSGcVvR7OFmxbcjkcZ" name="第 1 页">
    <mxGraphModel dx="932" dy="459" grid="1" gridSize="10" guides="1" tooltips="1" connect="1" arrows="1" fold="1" page="1" pageScale="1" pageWidth="700" pageHeight="1000" math="0" shadow="0">
      <root>
        <mxCell id="0" />
        <mxCell id="1" parent="0" />
        <mxCell id="sT_qIkrrZLsNHYPVyV0O-1" value="电网数据中台" style="rounded=0;whiteSpace=wrap;html=1;" vertex="1" parent="1">
          <mxGeometry x="120" y="380" width="120" height="60" as="geometry" />
        </mxCell>
        <mxCell id="sT_qIkrrZLsNHYPVyV0O-6" style="edgeStyle=orthogonalEdgeStyle;rounded=0;orthogonalLoop=1;jettySize=auto;html=1;exitX=0.5;exitY=1;exitDx=0;exitDy=0;entryX=0.5;entryY=0;entryDx=0;entryDy=0;" edge="1" parent="1" source="sT_qIkrrZLsNHYPVyV0O-2" target="sT_qIkrrZLsNHYPVyV0O-1">
          <mxGeometry relative="1" as="geometry" />
        </mxCell>
        <mxCell id="sT_qIkrrZLsNHYPVyV0O-8" value="数据入库" style="edgeLabel;html=1;align=center;verticalAlign=middle;resizable=0;points=[];" vertex="1" connectable="0" parent="sT_qIkrrZLsNHYPVyV0O-6">
          <mxGeometry x="-0.22" relative="1" as="geometry">
            <mxPoint as="offset" />
          </mxGeometry>
        </mxCell>
        <mxCell id="sT_qIkrrZLsNHYPVyV0O-2" value="电网物联网接入平台" style="rounded=0;whiteSpace=wrap;html=1;" vertex="1" parent="1">
          <mxGeometry x="120" y="220" width="120" height="60" as="geometry" />
        </mxCell>
        <mxCell id="sT_qIkrrZLsNHYPVyV0O-9" value="订阅/发布" style="edgeStyle=orthogonalEdgeStyle;rounded=0;orthogonalLoop=1;jettySize=auto;html=1;entryX=1;entryY=0.5;entryDx=0;entryDy=0;startArrow=classic;startFill=1;" edge="1" parent="1" source="sT_qIkrrZLsNHYPVyV0O-3" target="sT_qIkrrZLsNHYPVyV0O-2">
          <mxGeometry relative="1" as="geometry" />
        </mxCell>
        <mxCell id="sT_qIkrrZLsNHYPVyV0O-10" style="edgeStyle=orthogonalEdgeStyle;rounded=0;orthogonalLoop=1;jettySize=auto;html=1;exitX=0.5;exitY=1;exitDx=0;exitDy=0;entryX=1;entryY=0.5;entryDx=0;entryDy=0;startArrow=classic;startFill=1;" edge="1" parent="1" source="sT_qIkrrZLsNHYPVyV0O-3" target="sT_qIkrrZLsNHYPVyV0O-1">
          <mxGeometry relative="1" as="geometry" />
        </mxCell>
        <mxCell id="sT_qIkrrZLsNHYPVyV0O-11" value="数据读写" style="edgeLabel;html=1;align=center;verticalAlign=middle;resizable=0;points=[];" vertex="1" connectable="0" parent="sT_qIkrrZLsNHYPVyV0O-10">
          <mxGeometry x="-0.2182" y="-34" relative="1" as="geometry">
            <mxPoint as="offset" />
          </mxGeometry>
        </mxCell>
        <mxCell id="sT_qIkrrZLsNHYPVyV0O-3" value="电网管理云" style="rounded=0;whiteSpace=wrap;html=1;" vertex="1" parent="1">
          <mxGeometry x="380" y="220" width="120" height="60" as="geometry" />
        </mxCell>
        <mxCell id="sT_qIkrrZLsNHYPVyV0O-5" style="edgeStyle=orthogonalEdgeStyle;rounded=0;orthogonalLoop=1;jettySize=auto;html=1;exitX=0.5;exitY=1;exitDx=0;exitDy=0;startArrow=classic;startFill=1;" edge="1" parent="1" source="sT_qIkrrZLsNHYPVyV0O-4" target="sT_qIkrrZLsNHYPVyV0O-2">
          <mxGeometry relative="1" as="geometry" />
        </mxCell>
        <mxCell id="sT_qIkrrZLsNHYPVyV0O-7" value="订阅/发布" style="edgeLabel;html=1;align=center;verticalAlign=middle;resizable=0;points=[];" vertex="1" connectable="0" parent="sT_qIkrrZLsNHYPVyV0O-5">
          <mxGeometry x="-0.1846" y="-1" relative="1" as="geometry">
            <mxPoint as="offset" />
          </mxGeometry>
        </mxCell>
        <mxCell id="sT_qIkrrZLsNHYPVyV0O-4" value="站端机器人" style="rounded=0;whiteSpace=wrap;html=1;" vertex="1" parent="1">
          <mxGeometry x="120" y="30" width="120" height="60" as="geometry" />
        </mxCell>
      </root>
    </mxGraphModel>
  </diagram>
</mxfile>
